<svg id="visual" viewBox="0 0 960 540" width="960" height="540" xmlns="http://www.w3.org/2000/svg" xmlns:xlink="http://www.w3.org/1999/xlink" version="1.1"><g transform="translate(-0.19999999999998863 -0.050177743751874004)"><path d="M225.5 -390.5C293.6 -351.2 351.2 -293.6 390.6 -225.5C430 -157.3 451.3 -78.7 451.3 0C451.3 78.7 430 157.3 390.6 225.5C351.3 293.7 293.8 351.5 225.6 390.8C157.5 430.1 78.8 451.1 0 451C-78.7 450.9 -157.3 429.8 -225.5 390.5C-293.6 351.2 -351.2 293.6 -390.5 225.5C-429.8 157.3 -450.9 78.7 -450.9 0C-450.9 -78.7 -429.8 -157.3 -390.5 -225.5C-351.2 -293.6 -293.6 -351.2 -225.5 -390.5C-157.3 -429.8 -78.7 -450.9 0 -450.9C78.7 -450.9 157.3 -429.8 225.5 -390.5" fill="#1ea2ee"></path></g></svg>