<svg id="visual" viewBox="0 0 960 540" width="960" height="540" xmlns="http://www.w3.org/2000/svg" xmlns:xlink="http://www.w3.org/1999/xlink" version="1.1"><path d="M0 273L32 277.8C64 282.7 128 292.3 192 304.7C256 317 320 332 384 336.5C448 341 512 335 576 320.8C640 306.7 704 284.3 768 274.7C832 265 896 268 928 269.5L960 271L960 0L928 0C896 0 832 0 768 0C704 0 640 0 576 0C512 0 448 0 384 0C320 0 256 0 192 0C128 0 64 0 32 0L0 0Z" fill="#F7770F" stroke-linecap="round" stroke-linejoin="miter"></path></svg>